<?xml version="1.0" encoding="UTF-8" standalone="no"?>
<!DOCTYPE svg PUBLIC "-//W3C//DTD SVG 1.1//EN" "http://www.w3.org/Graphics/SVG/1.1/DTD/svg11.dtd">
<svg width="100%" height="100%" viewBox="0 0 217 202" version="1.1" xmlns="http://www.w3.org/2000/svg" xmlns:xlink="http://www.w3.org/1999/xlink" xml:space="preserve" xmlns:serif="http://www.serif.com/" style="fill-rule:evenodd;clip-rule:evenodd;stroke-linejoin:round;stroke-miterlimit:2;">
    <g transform="matrix(0.333333,0,0,0.333333,-48,-338)">
        <g>
            <g transform="matrix(1,0,0,1,0,376)">
                <path d="M278.545,705.688C284.349,702.005 291.826,702.294 297.328,706.416C302.83,710.537 305.21,717.632 303.306,724.237C295.946,749.92 292,777.047 292,805.088C292,966.848 423.328,1098.18 585.088,1098.18C610.231,1098.18 634.639,1095 657.936,1089.03C664.595,1087.31 671.628,1089.88 675.599,1095.5C679.57,1101.12 679.65,1108.61 675.801,1114.31C623.447,1191.36 535.091,1242 435,1242C274.393,1242 144,1111.61 144,951C144,847.967 197.663,757.37 278.545,705.688Z" style="fill:white;"/>
            </g>
            <g transform="matrix(0.671987,0,0,0.671987,318.109,642.799)">
                <path d="M449.251,650.609C452.228,869.363 520.681,901.756 709.673,915.149C522.169,913.661 458.18,950.864 444.787,1150.27C432.476,942.947 377.821,927.054 173.948,921.101C374.845,909.196 441.811,867.875 449.251,650.609Z" style="fill:white;"/>
            </g>
            <g transform="matrix(0.294349,0,0,0.294349,321.798,822.494)">
                <path d="M449.251,650.609C452.228,869.363 520.681,901.756 709.673,915.149C522.169,913.661 458.18,950.864 444.787,1150.27C432.476,942.947 377.821,927.054 173.948,921.101C374.845,909.196 441.811,867.875 449.251,650.609Z" style="fill:white;"/>
            </g>
        </g>
    </g>
</svg>
