<?xml version="1.0" encoding="UTF-8" standalone="no"?>
<!DOCTYPE svg PUBLIC "-//W3C//DTD SVG 1.1//EN" "http://www.w3.org/Graphics/SVG/1.1/DTD/svg11.dtd">
<svg width="100%" height="100%" viewBox="0 0 83 69" version="1.1" xmlns="http://www.w3.org/2000/svg" xmlns:xlink="http://www.w3.org/1999/xlink" xml:space="preserve" xmlns:serif="http://www.serif.com/" style="fill-rule:evenodd;clip-rule:evenodd;stroke-linejoin:round;stroke-miterlimit:2;">
    <g transform="matrix(1,0,0,1,-19.1996,-27)">
        <path d="M81.9,27C91.7,27 96.8,30.7 99.9,33.2C101.299,34.314 102.111,36.012 102.1,37.8L102.1,86.5C102.073,86.867 101.934,87.216 101.7,87.5C101.442,87.773 101.076,87.92 100.7,87.9C100.354,87.918 100.019,87.769 99.8,87.5C96.7,84.9 90.6,81.5 81.6,81.5C66.6,81.5 62.2,95.5 62.2,95.5L62.2,42.5C62.206,39.781 63.122,37.14 64.8,35C67.6,31.3 72.7,27 81.9,27ZM39.3,27C48.5,27 53.6,31.3 56.5,35C58.178,37.14 59.094,39.781 59.1,42.5L59.1,95.5C59.1,95.5 54.7,81.5 39.7,81.5C30.7,81.5 24.6,84.9 21.5,87.5C21.22,87.674 20.917,87.809 20.6,87.9C20.589,87.9 20.578,87.9 20.567,87.9C19.817,87.9 19.2,87.283 19.2,86.533C19.2,86.522 19.2,86.511 19.2,86.5L19.2,37.8C19.21,36.016 20.018,34.327 21.4,33.2C24.4,30.7 29.5,27 39.3,27Z" style="fill:white;"/>
    </g>
</svg>
